# xmcd
#
# Track frame offsets:
#	150
#	21900
#	42600
#	62062
#	84150
#	106762
#	125175
#	148912
#	168937
#	191400
#	205762
#	218025
#
# Disc length: 3087 seconds
#
# Revision: 1
# Processed by: cddbd v1.5.2PL0 Copyright (c) Steve Scherf et al.
# Submitted via: audiograbber 1.83.01
#
DISCID=ab0c0d0c
DTITLE=SongDogs - meanstreets
DYEAR=1997
DGENRE=Country
TTITLE0=the bridge
TTITLE1=restless
TTITLE2=meanstreets
TTITLE3=don´t turn off this light
TTITLE4=rough times
TTITLE5=leavin´ song
TTITLE6=I don´t want to be alone
TTITLE7=silver and gold
TTITLE8=riverside tales
TTITLE9=redemption reel
TTITLE10=lay your burdons down
TTITLE11=poem
EXTD=
EXTT0=
EXTT1=
EXTT2=
EXTT3=
EXTT4=
EXTT5=
EXTT6=
EXTT7=
EXTT8=
EXTT9=
EXTT10=
EXTT11=
PLAYORDER=
